<?xml version="1.0" encoding="utf-8"?>
<!-- Generator: Adobe Illustrator 27.2.0, SVG Export Plug-In . SVG Version: 6.00 Build 0)  -->
<svg version="1.1" id="Layer_1" xmlns="http://www.w3.org/2000/svg" xmlns:xlink="http://www.w3.org/1999/xlink" x="0px" y="0px"
	 viewBox="0 0 50 50" style="enable-background:new 0 0 50 50;" xml:space="preserve">
<style type="text/css">
	.st0{fill:#E1E1E1;}
	.st1{opacity:0.4;}
	.st2{fill:#FFFFFF;}
	.st3{opacity:0.75;}
	.st4{clip-path:url(#SVGID_00000088109120822426050110000016695588873279532690_);}
	.st5{fill:#FF9700;}
	.st6{clip-path:url(#SVGID_00000068676184280517306690000015889410935903497116_);fill:#FF9700;}
	.st7{clip-path:url(#SVGID_00000152959828424393598250000006733346359047985333_);}
	.st8{fill:#C60076;}
	.st9{opacity:0.75;fill:#121D23;}
	.st10{clip-path:url(#SVGID_00000111907015332011783390000000592317023894472850_);}
	.st11{fill:none;stroke:#FFFFFF;stroke-miterlimit:10;}
	.st12{fill:none;stroke:#FFFFFF;stroke-width:15;stroke-linecap:round;stroke-linejoin:round;stroke-miterlimit:10;}
	.st13{fill:none;stroke:#FFFFFF;stroke-width:15;stroke-miterlimit:10;}
	.st14{fill:#F68E1F;}
	.st15{fill:#00DD88;}
	.st16{fill:#FA4244;}
	.st17{fill:#7BAA2E;}
	.st18{fill:#FA2582;}
	.st19{fill:#C6005F;}
	.st20{fill:#B4189F;}
	.st21{fill:#720AB9;}
	.st22{fill:#001219;}
	.st23{fill:#94D2BD;}
	.st24{fill:#99A88C;}
	.st25{fill:#767A72;}
	.st26{fill:#CA6702;}
	.st27{fill:#CE0203;}
	.st28{fill:#AD1F13;}
	.st29{fill:#F8C820;}
	.st30{fill:#E09F3E;}
	.st31{fill:#3E0BA4;}
	.st32{fill:#3E36C9;}
	.st33{fill:#4460EF;}
	.st34{fill:#4792ED;}
	.st35{fill:#4ACAF1;}
</style>
<g>
	<defs>
		
			<rect id="SVGID_1_" x="-3095" y="570" transform="matrix(4.736218e-11 -1 1 4.736218e-11 -3095 -995)" width="2100" height="960"/>
	</defs>
	<clipPath id="SVGID_00000024002613394123972570000000962840045162790586_">
		<use xlink:href="#SVGID_1_"  style="overflow:visible;"/>
	</clipPath>
	<g style="clip-path:url(#SVGID_00000024002613394123972570000000962840045162790586_);">
		<defs>
			<circle id="SVGID_00000067220763433419701980000005837458232037408180_" cx="-2045" cy="0" r="960"/>
		</defs>
		<clipPath id="SVGID_00000166662031845668009140000006746650272165371039_">
			<use xlink:href="#SVGID_00000067220763433419701980000005837458232037408180_"  style="overflow:visible;"/>
		</clipPath>
		<g style="clip-path:url(#SVGID_00000166662031845668009140000006746650272165371039_);">
			
				<image style="overflow:visible;" width="3186" height="1315" xlink:href="9123C9DE.jpg"  transform="matrix(1.597 0 0 1.597 -5068.9546 -466.7545)">
			</image>
		</g>
	</g>
</g>
<path class="st2" d="M43.3,9.4c-0.9-1.2-2.3-1.9-3.8-1.9h-29C9,7.5,7.6,8.2,6.7,9.4l-4.6,6.2c-0.7,1-1,2.2-0.9,3.3c0,0,0,0,0,0
	C1.4,20,1.9,21,2.7,21.8l21.8,20.5c0,0,0,0,0.1,0c0.1,0,0.1,0.1,0.2,0.1c0,0,0,0,0,0c0,0,0,0,0,0c0.1,0,0.2,0.1,0.3,0.1c0,0,0,0,0,0
	c0.1,0,0.2,0,0.3-0.1c0.1,0,0.1-0.1,0.2-0.1c0,0,0,0,0.1,0l21.8-20.5c0.8-0.8,1.3-1.8,1.4-2.9c0,0,0,0,0,0c0.1-1.1-0.2-2.3-0.9-3.3
	L43.3,9.4z M28.8,8.9l3.2,9.3H18l3.2-9.3H28.8z M2.6,18.2c0-0.6,0.3-1.2,0.6-1.8l4.6-6.2c0.6-0.8,1.6-1.3,2.7-1.3h9.3l-3.2,9.3H2.6z
	 M3.6,20.8C3.3,20.4,3,20,2.8,19.6h13.7l6.9,19.8L3.6,20.8z M25,39.7l-7-20.1h14L25,39.7z M46.4,20.8L26.6,39.4l6.9-19.8h13.7
	C47,20,46.7,20.4,46.4,20.8z M33.4,18.2l-3.2-9.3h9.3c1,0,2,0.5,2.7,1.3l4.6,6.2c0.4,0.5,0.6,1.1,0.6,1.8H33.4z"/>
</svg>
