<?xml version="1.0" encoding="utf-8"?>
<!-- Generator: Adobe Illustrator 27.2.0, SVG Export Plug-In . SVG Version: 6.00 Build 0)  -->
<svg version="1.1" id="Layer_1" xmlns="http://www.w3.org/2000/svg" xmlns:xlink="http://www.w3.org/1999/xlink" x="0px" y="0px"
	 viewBox="0 0 50 50" style="enable-background:new 0 0 50 50;" xml:space="preserve">
<style type="text/css">
	.st0{fill:#E1E1E1;}
	.st1{opacity:0.4;}
	.st2{fill:#FFFFFF;}
	.st3{opacity:0.75;}
	.st4{clip-path:url(#SVGID_00000072988708763306595610000000392558082313740221_);}
	.st5{fill:#FF9700;}
	.st6{clip-path:url(#SVGID_00000074420738850601143320000011430338840215646896_);fill:#FF9700;}
	.st7{clip-path:url(#SVGID_00000014594776294983386990000003514944012502998402_);}
	.st8{fill:#C60076;}
	.st9{opacity:0.75;fill:#121D23;}
	.st10{clip-path:url(#SVGID_00000059282168654825696790000013624380325305858716_);}
	.st11{fill:none;stroke:#FFFFFF;stroke-miterlimit:10;}
	.st12{fill:none;stroke:#FFFFFF;stroke-width:15;stroke-linecap:round;stroke-linejoin:round;stroke-miterlimit:10;}
	.st13{fill:none;stroke:#FFFFFF;stroke-width:15;stroke-miterlimit:10;}
	.st14{fill:#F68E1F;}
	.st15{fill:#00DD88;}
	.st16{fill:#FA4244;}
	.st17{fill:#7BAA2E;}
	.st18{fill:#FA2582;}
	.st19{fill:#C6005F;}
	.st20{fill:#B4189F;}
	.st21{fill:#720AB9;}
	.st22{fill:#001219;}
	.st23{fill:#94D2BD;}
	.st24{fill:#99A88C;}
	.st25{fill:#767A72;}
	.st26{fill:#CA6702;}
	.st27{fill:#CE0203;}
	.st28{fill:#AD1F13;}
	.st29{fill:#F8C820;}
	.st30{fill:#E09F3E;}
	.st31{fill:#3E0BA4;}
	.st32{fill:#3E36C9;}
	.st33{fill:#4460EF;}
	.st34{fill:#4792ED;}
	.st35{fill:#4ACAF1;}
</style>
<g>
	<defs>
		
			<rect id="SVGID_1_" x="-2825" y="570" transform="matrix(4.736218e-11 -1 1 4.736218e-11 -2825 -725)" width="2100" height="960"/>
	</defs>
	<clipPath id="SVGID_00000041261029286184433100000014472885951264184487_">
		<use xlink:href="#SVGID_1_"  style="overflow:visible;"/>
	</clipPath>
	<g style="clip-path:url(#SVGID_00000041261029286184433100000014472885951264184487_);">
		<defs>
			<circle id="SVGID_00000069372926726180541140000006237133408517815700_" cx="-1775" cy="0" r="960"/>
		</defs>
		<clipPath id="SVGID_00000103973320551198199490000011023583479280357012_">
			<use xlink:href="#SVGID_00000069372926726180541140000006237133408517815700_"  style="overflow:visible;"/>
		</clipPath>
		<g style="clip-path:url(#SVGID_00000103973320551198199490000011023583479280357012_);">
			
				<image style="overflow:visible;" width="3186" height="1315" xlink:href="AF815DFF.jpg"  transform="matrix(1.597 0 0 1.597 -4798.9546 -466.7545)">
			</image>
		</g>
	</g>
</g>
<g>
	<defs>
		
			<rect id="SVGID_00000154423463321158934980000017492705670417724849_" x="-1765" y="570" transform="matrix(4.736218e-11 -1 1 4.736218e-11 -1765 335)" width="2100" height="960"/>
	</defs>
	<clipPath id="SVGID_00000021091977563470695230000013426173068987732881_">
		<use xlink:href="#SVGID_00000154423463321158934980000017492705670417724849_"  style="overflow:visible;"/>
	</clipPath>
	<g style="clip-path:url(#SVGID_00000021091977563470695230000013426173068987732881_);">
		<defs>
			<circle id="SVGID_00000129898009695637218590000011502299169691324863_" cx="-715" cy="0" r="960"/>
		</defs>
		<use xlink:href="#SVGID_00000129898009695637218590000011502299169691324863_"  style="overflow:visible;fill:#FF9700;"/>
		<clipPath id="SVGID_00000162311387459064463270000011291148143056897717_">
			<use xlink:href="#SVGID_00000129898009695637218590000011502299169691324863_"  style="overflow:visible;"/>
		</clipPath>
	</g>
</g>
<path class="st2" d="M44.4,28.1C44.4,28.1,44.4,28.1,44.4,28.1C44.4,28.1,44.4,28.1,44.4,28.1C44.4,28.1,44.4,28.1,44.4,28.1
	c0-0.1,0-0.1,0-0.1c0,0,0,0,0-0.1c0,0,0,0,0,0c0,0,0,0,0-0.1c0,0,0,0,0,0c0,0,0,0,0-0.1c0,0,0,0,0,0c0,0,0,0-0.1,0c0,0,0,0,0,0
	l-9.3-7.6l2.3-2.9c0.2-0.3,0.2-0.7-0.1-0.9l-4.9-4.5c0,0,0,0,0,0c0,0,0,0,0,0c0,0,0,0,0,0c0,0,0,0,0,0c0,0,0,0,0,0c0,0,0,0,0,0l0,0
	c0,0,0,0,0,0l-8.5-4.2c-0.3-0.1-0.6-0.1-0.8,0.1L6.2,24c0,0,0,0,0,0c0,0,0,0,0,0c0,0,0,0,0,0c0,0,0,0,0,0c0,0,0,0,0,0c0,0,0,0,0,0.1
	c0,0,0,0,0,0c0,0,0,0,0,0l-2.3,6.6c-0.1,0.3,0,0.7,0.3,0.8l14.7,7.5c0,0,0.1,0,0.1,0c0,0,0,0,0,0c0,0,0.1,0,0.1,0c0,0,0,0,0,0
	c0,0,0.1,0,0.1,0c0,0,0,0,0,0c0,0,0,0,0,0c0,0,0,0,0.1,0c0,0,0,0,0,0c0,0,0,0,0.1,0c0,0,0,0,0,0c0,0,0,0,0,0c0,0,0,0,0,0
	c0,0,0,0,0,0c0,0,0,0,0,0c0,0,0.1,0,0.1-0.1c0,0,0,0,0,0c0,0,0,0,0,0c0,0,0,0,0,0c0,0,0,0,0,0c0,0,0,0,0,0l3.2-3.9l6.9,7.2
	c0,0,0,0,0,0c0,0,0,0,0,0c0,0,0,0,0,0c0,0,0,0,0,0c0,0,0,0,0,0c0,0,0,0,0,0c0,0,0,0,0,0c0,0,0,0,0,0c0,0,0,0,0,0c0,0,0,0,0,0
	c0,0,0,0,0,0c0,0,0,0,0,0c0,0,0,0,0,0c0,0,0,0,0,0c0,0,0,0,0,0c0,0,0,0,0,0c0,0,0,0,0.1,0c0,0,0,0,0.1,0c0,0,0,0,0,0c0,0,0,0,0.1,0
	c0,0,0,0,0,0l15.4-3.2c0.4-0.1,0.6-0.4,0.5-0.8L44.4,28.1z M42.3,27.9l-11,2.9l-2.5-3.1l5.3-6.5L42.3,27.9z M33.4,19.8
	C33.4,19.8,33.4,19.8,33.4,19.8l-6.1,7.5l-5.2,6.4c0,0,0,0,0,0l-2.8,3.5l-1.9-7.4l14.3-16.4l3.9,3.6L33.4,19.8z M23.4,9l7.3,3.6
	L16.6,28.7l-8.8-4.4L23.4,9z M7.1,25.5l9.1,4.6l1.9,7.3L5.2,30.8L7.1,25.5z M27.9,28.8l2.4,3l-0.7,8.5l-6-6.2L27.9,28.8z M31,41
	l0.7-8.9l11.5-3l1.6,9L31,41z"/>
</svg>
