<?xml version="1.0" encoding="utf-8"?>
<!-- Generator: Adobe Illustrator 27.2.0, SVG Export Plug-In . SVG Version: 6.00 Build 0)  -->
<svg version="1.1" id="Layer_1" xmlns="http://www.w3.org/2000/svg" xmlns:xlink="http://www.w3.org/1999/xlink" x="0px" y="0px"
	 viewBox="0 0 50 50" style="enable-background:new 0 0 50 50;" xml:space="preserve">
<style type="text/css">
	.st0{fill:#E1E1E1;}
	.st1{opacity:0.4;}
	.st2{fill:#FFFFFF;}
	.st3{opacity:0.75;}
	.st4{clip-path:url(#SVGID_00000170279059868902601120000007647619578076324527_);}
	.st5{fill:#FF9700;}
	.st6{clip-path:url(#SVGID_00000056412959676104450830000014671995965295284656_);fill:#FF9700;}
	.st7{clip-path:url(#SVGID_00000016782249143629632200000004514136364033364377_);}
	.st8{fill:#C60076;}
	.st9{opacity:0.75;fill:#121D23;}
	.st10{clip-path:url(#SVGID_00000127002449368067108540000005510300170998217624_);}
	.st11{fill:none;stroke:#FFFFFF;stroke-miterlimit:10;}
	.st12{fill:none;stroke:#FFFFFF;stroke-width:15;stroke-linecap:round;stroke-linejoin:round;stroke-miterlimit:10;}
	.st13{fill:none;stroke:#FFFFFF;stroke-width:15;stroke-miterlimit:10;}
	.st14{fill:#F68E1F;}
	.st15{fill:#00DD88;}
	.st16{fill:#FA4244;}
	.st17{fill:#7BAA2E;}
	.st18{fill:#FA2582;}
	.st19{fill:#C6005F;}
	.st20{fill:#B4189F;}
	.st21{fill:#720AB9;}
	.st22{fill:#001219;}
	.st23{fill:#94D2BD;}
	.st24{fill:#99A88C;}
	.st25{fill:#767A72;}
	.st26{fill:#CA6702;}
	.st27{fill:#CE0203;}
	.st28{fill:#AD1F13;}
	.st29{fill:#F8C820;}
	.st30{fill:#E09F3E;}
	.st31{fill:#3E0BA4;}
	.st32{fill:#3E36C9;}
	.st33{fill:#4460EF;}
	.st34{fill:#4792ED;}
	.st35{fill:#4ACAF1;}
</style>
<g>
	<defs>
		
			<rect id="SVGID_1_" x="-2690" y="570" transform="matrix(4.736218e-11 -1 1 4.736218e-11 -2690 -590)" width="2100" height="960"/>
	</defs>
	<clipPath id="SVGID_00000000206314882411154050000016484862186992800684_">
		<use xlink:href="#SVGID_1_"  style="overflow:visible;"/>
	</clipPath>
	<g style="clip-path:url(#SVGID_00000000206314882411154050000016484862186992800684_);">
		<defs>
			<circle id="SVGID_00000113345408561106023750000003974012414939361212_" cx="-1640" cy="0" r="960"/>
		</defs>
		<clipPath id="SVGID_00000065759555464496109160000010011814337040025499_">
			<use xlink:href="#SVGID_00000113345408561106023750000003974012414939361212_"  style="overflow:visible;"/>
		</clipPath>
		<g style="clip-path:url(#SVGID_00000065759555464496109160000010011814337040025499_);">
			
				<image style="overflow:visible;" width="3186" height="1315" xlink:href="45E3010F.jpg"  transform="matrix(1.597 0 0 1.597 -4663.9546 -466.7545)">
			</image>
		</g>
	</g>
</g>
<g>
	<defs>
		
			<rect id="SVGID_00000031205389555579789660000010136257249351656887_" x="-1630" y="570" transform="matrix(4.736218e-11 -1 1 4.736218e-11 -1630 470)" width="2100" height="960"/>
	</defs>
	<clipPath id="SVGID_00000140716467949456362470000002198616943698420383_">
		<use xlink:href="#SVGID_00000031205389555579789660000010136257249351656887_"  style="overflow:visible;"/>
	</clipPath>
	<g style="clip-path:url(#SVGID_00000140716467949456362470000002198616943698420383_);">
		<defs>
			<circle id="SVGID_00000160177472059568059070000011492749651937615532_" cx="-580" cy="0" r="960"/>
		</defs>
		<use xlink:href="#SVGID_00000160177472059568059070000011492749651937615532_"  style="overflow:visible;fill:#FF9700;"/>
		<clipPath id="SVGID_00000034074533617251207710000014260551076183665054_">
			<use xlink:href="#SVGID_00000160177472059568059070000011492749651937615532_"  style="overflow:visible;"/>
		</clipPath>
	</g>
</g>
<path class="st2" d="M41.4,23.2l-0.5-8.6c0-0.1,0-0.2-0.1-0.3l-2-2.9c0,0,0,0,0,0c0,0,0-0.1-0.1-0.1c0,0,0,0,0,0c0,0,0,0-0.1,0
	c0,0,0,0,0,0c0,0,0,0,0,0l-5.2-3.6c-0.2-0.1-0.5-0.2-0.7,0L10.5,19.9c-0.2,0.1-0.3,0.3-0.3,0.6v6.1l-1.5,6.8c0,0.2,0,0.4,0.1,0.5
	l3.2,4.6c0.1,0.2,0.3,0.3,0.6,0.3l7.8-0.2l6.3,3.8c0.1,0.1,0.2,0.1,0.3,0.1c0.1,0,0.2,0,0.3-0.1l8.6-5.1c0.2-0.1,0.3-0.3,0.3-0.6
	v-6.3c0,0,0,0,0-0.1c0,0,0,0,0,0c0,0,0,0,0-0.1c0,0,0,0,0,0c0,0,0,0,0-0.1c0,0,0,0,0,0c0,0,0,0,0,0c0,0,0,0,0,0c0,0,0,0,0,0
	c0,0,0,0,0,0c0,0,0,0,0,0c0,0,0,0,0,0c0,0,0,0,0,0c0,0,0,0,0,0c0,0,0,0,0,0c0,0,0,0,0,0l-0.6-0.6l5.8-5.7
	C41.3,23.6,41.4,23.4,41.4,23.2z M11.5,20.9L33,8.9l4.6,3.2v7.6l-6.9,6.4c-0.1,0.1-0.2,0.3-0.2,0.5c0,0.2,0.1,0.4,0.2,0.5l3.2,2.7
	c0,0,0,0,0,0l0.6,0.5l-7.3,6l-5.4-5.2C21.7,31,21.5,31,21.4,31c0,0-0.1,0-0.1,0l-7.1,1.2l-2.7-5.6V20.9z M27,41.1l-6.1-3.7
	c-0.1-0.1-0.2-0.1-0.4-0.1l-7.7,0.2l-2.8-4l1-4.7l2.2,4.5c0.1,0.3,0.4,0.4,0.7,0.4l7.2-1.2l5.6,5.4c0.1,0.1,0.3,0.2,0.5,0.2
	c0.1,0,0.3,0,0.4-0.2l7.3-6v4.5L27,41.1z M34.3,28.5l-2.2-1.8l6.6-6.1c0.1-0.1,0.2-0.3,0.2-0.5v-6.1l0.6,0.9L40,23L34.3,28.5z"/>
</svg>
