<?xml version="1.0" encoding="utf-8"?>
<!-- Generator: Adobe Illustrator 27.2.0, SVG Export Plug-In . SVG Version: 6.00 Build 0)  -->
<svg version="1.1" id="Layer_1" xmlns="http://www.w3.org/2000/svg" xmlns:xlink="http://www.w3.org/1999/xlink" x="0px" y="0px"
	 viewBox="0 0 50 50" style="enable-background:new 0 0 50 50;" xml:space="preserve">
<style type="text/css">
	.st0{fill:#E1E1E1;}
	.st1{opacity:0.4;}
	.st2{fill:#FFFFFF;}
	.st3{opacity:0.75;}
	.st4{clip-path:url(#SVGID_00000091707183076387176700000002842241704372124835_);}
	.st5{fill:#FF9700;}
	.st6{clip-path:url(#SVGID_00000152981455639185744990000015742739148681656232_);fill:#FF9700;}
	.st7{clip-path:url(#SVGID_00000087410110273879196930000002026409783941603460_);}
	.st8{fill:#C60076;}
	.st9{opacity:0.75;fill:#121D23;}
	.st10{clip-path:url(#SVGID_00000030471163149184050000000010373995836198641568_);}
	.st11{fill:none;stroke:#FFFFFF;stroke-miterlimit:10;}
	.st12{fill:none;stroke:#FFFFFF;stroke-width:15;stroke-linecap:round;stroke-linejoin:round;stroke-miterlimit:10;}
	.st13{fill:none;stroke:#FFFFFF;stroke-width:15;stroke-miterlimit:10;}
	.st14{fill:#F68E1F;}
	.st15{fill:#00DD88;}
	.st16{fill:#FA4244;}
	.st17{fill:#7BAA2E;}
	.st18{fill:#FA2582;}
	.st19{fill:#C6005F;}
	.st20{fill:#B4189F;}
	.st21{fill:#720AB9;}
	.st22{fill:#001219;}
	.st23{fill:#94D2BD;}
	.st24{fill:#99A88C;}
	.st25{fill:#767A72;}
	.st26{fill:#CA6702;}
	.st27{fill:#CE0203;}
	.st28{fill:#AD1F13;}
	.st29{fill:#F8C820;}
	.st30{fill:#E09F3E;}
	.st31{fill:#3E0BA4;}
	.st32{fill:#3E36C9;}
	.st33{fill:#4460EF;}
	.st34{fill:#4792ED;}
	.st35{fill:#4ACAF1;}
</style>
<g>
	<defs>
		
			<rect id="SVGID_1_" x="-2960" y="570" transform="matrix(4.736218e-11 -1 1 4.736218e-11 -2960 -860)" width="2100" height="960"/>
	</defs>
	<clipPath id="SVGID_00000060728404026314754010000007329459862991935919_">
		<use xlink:href="#SVGID_1_"  style="overflow:visible;"/>
	</clipPath>
	<g style="clip-path:url(#SVGID_00000060728404026314754010000007329459862991935919_);">
		<defs>
			<circle id="SVGID_00000089538236774355400130000011948300451635007364_" cx="-1910" cy="0" r="960"/>
		</defs>
		<clipPath id="SVGID_00000057870751176934369000000004696285341411488654_">
			<use xlink:href="#SVGID_00000089538236774355400130000011948300451635007364_"  style="overflow:visible;"/>
		</clipPath>
		<g style="clip-path:url(#SVGID_00000057870751176934369000000004696285341411488654_);">
			
				<image style="overflow:visible;" width="3186" height="1315" xlink:href="3DAFC7C6.jpg"  transform="matrix(1.597 0 0 1.597 -4933.9546 -466.7545)">
			</image>
		</g>
	</g>
</g>
<g>
	<defs>
		
			<rect id="SVGID_00000103229022485589276790000001663948918307644078_" x="-1900" y="570" transform="matrix(4.736218e-11 -1 1 4.736218e-11 -1900 200)" width="2100" height="960"/>
	</defs>
	<clipPath id="SVGID_00000065782729485584239260000010774214851487474589_">
		<use xlink:href="#SVGID_00000103229022485589276790000001663948918307644078_"  style="overflow:visible;"/>
	</clipPath>
	<g style="clip-path:url(#SVGID_00000065782729485584239260000010774214851487474589_);">
		<defs>
			<circle id="SVGID_00000182529758836015335860000016394919955921625276_" cx="-850" cy="0" r="960"/>
		</defs>
		<use xlink:href="#SVGID_00000182529758836015335860000016394919955921625276_"  style="overflow:visible;fill:#FF9700;"/>
		<clipPath id="SVGID_00000141433154602804483980000014057271533216052141_">
			<use xlink:href="#SVGID_00000182529758836015335860000016394919955921625276_"  style="overflow:visible;"/>
		</clipPath>
	</g>
</g>
<path class="st2" d="M39.4,9.3c-2-1.1-4.7-1.8-7.6-1.8c-2.9,0-5.6,0.6-7.6,1.8c-2.2,1.2-3.4,2.9-3.4,4.7v4.5
	c-0.9-0.1-1.7-0.2-2.6-0.2c-2.9,0-5.6,0.6-7.6,1.8c-2.2,1.2-3.4,2.9-3.4,4.7v11.5c0,1.8,1.2,3.4,3.4,4.7c2,1.1,4.7,1.8,7.6,1.8
	s5.6-0.6,7.6-1.8c1.7-0.9,2.7-2.1,3.2-3.4c0.9,0.1,1.9,0.2,2.8,0.2c2.9,0,5.6-0.6,7.6-1.8c2.2-1.2,3.4-2.9,3.4-4.7V13.9
	C42.7,12.1,41.6,10.5,39.4,9.3z M27.8,36.1c0,2.7-4.4,5-9.6,5c-5.2,0-9.6-2.3-9.6-5v-2.6c0.5,0.5,1.2,1,2,1.5c2,1.1,4.7,1.8,7.6,1.8
	s5.6-0.6,7.6-1.8c0.8-0.4,1.5-0.9,2-1.5V36.1z M27.8,30.3c0,2.7-4.4,5-9.6,5c-5.2,0-9.6-2.3-9.6-5v-2.6c0,0,0,0,0,0
	c0,0,0.1,0.1,0.1,0.1c0,0,0,0,0,0C8.9,28.1,9,28.1,9,28.2c0,0,0,0,0,0c0.1,0,0.1,0.1,0.2,0.1c0,0,0,0,0.1,0c0.1,0.1,0.1,0.1,0.2,0.2
	c0,0,0,0,0,0c0,0,0.1,0.1,0.1,0.1c0,0,0,0,0.1,0.1c0,0,0,0,0.1,0c0.1,0.1,0.2,0.1,0.2,0.2c0,0,0,0,0,0c0.1,0,0.1,0.1,0.2,0.1
	c0,0,0,0,0.1,0c0.1,0.1,0.2,0.1,0.3,0.1c2,1.1,4.7,1.8,7.6,1.8s5.6-0.6,7.6-1.8c0.1,0,0.2-0.1,0.3-0.1c0,0,0,0,0.1,0
	c0.1,0,0.1-0.1,0.2-0.1c0,0,0,0,0,0c0.1-0.1,0.2-0.1,0.2-0.2c0,0,0,0,0.1,0c0.1,0,0.1-0.1,0.2-0.1c0,0,0,0,0,0
	c0.1-0.1,0.1-0.1,0.2-0.2c0,0,0,0,0.1,0c0.1,0,0.1-0.1,0.2-0.1c0,0,0,0,0,0c0.1-0.1,0.1-0.1,0.2-0.2c0,0,0,0,0,0
	c0.1,0,0.1-0.1,0.1-0.2c0,0,0,0,0,0V30.3z M18.2,29.7c-5.2,0-9.6-2.3-9.6-5s4.4-5,9.6-5c5.2,0,9.6,2.3,9.6,5S23.4,29.7,18.2,29.7z
	 M41.4,31.1c0,2.7-4.4,5-9.6,5c-0.9,0-1.8-0.1-2.6-0.2v-4.3c0.9,0.1,1.7,0.2,2.6,0.2c2.9,0,5.6-0.6,7.6-1.8c0.8-0.4,1.5-0.9,2-1.5
	V31.1z M41.4,25.4c0,2.7-4.4,5-9.6,5c-0.9,0-1.8-0.1-2.6-0.2v-4.3c0.9,0.1,1.7,0.2,2.6,0.2c2.9,0,5.6-0.6,7.6-1.8
	c0.8-0.4,1.5-0.9,2-1.5V25.4z M41.4,19.7c0,2.7-4.4,5-9.6,5c-0.9,0-1.8-0.1-2.6-0.2c-0.1-1.7-1.2-3.3-3.4-4.5c-1-0.6-2.3-1-3.6-1.3
	v-1.5c0,0,0,0,0,0c0,0,0.1,0.1,0.1,0.1c0,0,0,0,0,0c0.1,0.1,0.1,0.1,0.2,0.2c0,0,0,0,0,0c0.1,0,0.1,0.1,0.2,0.1c0,0,0,0,0.1,0
	c0.1,0.1,0.1,0.1,0.2,0.2c0,0,0,0,0,0c0.1,0,0.1,0.1,0.2,0.1c0,0,0,0,0.1,0c0.1,0.1,0.2,0.1,0.2,0.2c0,0,0,0,0,0
	c0.1,0,0.1,0.1,0.2,0.1c0,0,0,0,0.1,0c0.1,0,0.2,0.1,0.3,0.1c0,0,0,0,0,0c0.5,0.3,1.1,0.5,1.6,0.8c1.5,0.5,3.1,0.9,4.9,1
	c0.4,0,0.7,0,1.1,0c0.4,0,0.7,0,1.1,0c1.8-0.1,3.4-0.4,4.9-1c0.6-0.2,1.1-0.5,1.6-0.8c0,0,0,0,0,0c0.1,0,0.2-0.1,0.3-0.1
	c0,0,0,0,0.1,0c0.1,0,0.1-0.1,0.2-0.1c0,0,0,0,0,0c0.1-0.1,0.2-0.1,0.2-0.2c0,0,0,0,0.1,0c0.1,0,0.1-0.1,0.2-0.1c0,0,0,0,0,0
	c0.1-0.1,0.1-0.1,0.2-0.2c0,0,0,0,0.1,0c0.1,0,0.1-0.1,0.2-0.1c0,0,0,0,0,0c0.1-0.1,0.1-0.1,0.2-0.2c0,0,0,0,0,0
	c0.1,0,0.1-0.1,0.1-0.1c0,0,0,0,0,0V19.7z M41.3,14.2c-0.2,2.2-3.1,4-7,4.6c-0.4,0.1-0.8,0.1-1.2,0.1c-0.2,0-0.3,0-0.5,0
	c-0.3,0-0.6,0-1,0c-0.3,0-0.6,0-1,0c-0.2,0-0.3,0-0.5,0c-0.4,0-0.8-0.1-1.2-0.1c-3.8-0.6-6.8-2.4-7-4.6c0-0.1,0-0.2,0-0.3
	c0-2.7,4.4-5,9.6-5c5.2,0,9.6,2.3,9.6,5C41.4,14,41.4,14.1,41.3,14.2z"/>
</svg>
